# xmcd CD database file generated by LOLA_Freedb v0.9beta0
# 
# Track frame offsets:
#      182
#      12477
#      25762
#      38472
#      50030
#      62290
#      74582
#      85865
#      98420
#      109975
#      123487
#      136005
#      148542
#      159310
#      170290
#      183702
#      196142
#      207465
#      220792
#      230647
#      241462
#      252475
#      262795
#      274245
#      285532
#      294277
#      303642
#      315777
#      328852
#      340665
# 
# Disc length: 4697 seconds
# 
# Revision: 3 
# Processed by: cddbd v1.5.1PL2 Copyright (c) Steve Scherf et al.
# Submitted via: LOLA_Freedb v0.9beta0
# 
DISCID=af12571e
DTITLE=BOBBY BARE - THE ALL - AMERICAN BOY DISC 3
DYEAR=1900
DGENRE=Country
TTITLE0=BOBBY BARE - LONG WAY TO TENNESSEE 1964
TTITLE1=BOBBY BARE - LONG BLACK LIMOUSINE 1964
TTITLE2=BOBBY BARE - DOWN IN MEXICO 1964
TTITLE3=BOBBY BARE - I WAS COMING HOME TO YOU 1994
TTITLE4=BOBBY BARE - ANOTHER BRIDGE TO BURN 1964
TTITLE5=I'VE LIVED A LOT IN MY TIME 1964
TTITLE6=HE WAS A FRIEND OF MINE 1964
TTITLE7=TAKEM ME HOME 1964
TTITLE8=WHEN I'M  GONE 1964
TTITLE9=SWEETER THAN THE FLOWERS 1964
TTITLE10=I WAS COMING HOME TO YOU 1964
TTITLE11=FOUR STRONG WINDS 1964
TTITLE12=WHEN THE WIND BLOWS IN CHICAGO 1964
TTITLE13=JUST TO SATISFY YOU 1964
TTITLE14=LET IT BE ME (& SKEETER DAVIS) 1964
TTITLE15=IN THE MISTY MOONLIGHT (& SKEETER DAVIS) 1964
TTITLE16=I LOVE YOU (& SKEETER DAVIS) 1964
TTITLE17=TOO USED TO BEING WITH YOU (& SKEETER DAVIS) 1964
TTITLE18=TOGETHER AGAIN (& SKEETER DAVIS) 1964
TTITLE19=WE'LL SING IN THE SUNSHINE (& SKEETER DAVIS) 1964
TTITLE20=OUT OF OUR MINDS (& SKEETER DAVIS) 1964
TTITLE21=I DON'T CARE (& SKEETER DAVIS) 1964
TTITLE22=THAT'S ALL I WANT FROM YOU (& SKEETER DAVIS) 1964
TTITLE23=INVISIBLE TEARS (& SKEETER DAVIS) 1964
TTITLE24=A DEAR JOHN LETTER (& SKEETER DAVIS) 1964
TTITLE25=TROU LOVE (& SKEETER DAVIS) 1964
TTITLE26=ROSALIE (GERMAN) 1965
TTITLE27=ALLE GLAUBEN DAß ICH GLÜCKLICH BIN (GERMAN) 1965
TTITLE28=TIMES ARE GETTIN' HARD 1965
TTITLE29=I'M A LONG WAY FROM HOME 1965
EXTD=
EXTT0=
EXTT1=
EXTT2=
EXTT3=
EXTT4=
EXTT5=
EXTT6=
EXTT7=
EXTT8=
EXTT9=
EXTT10=
EXTT11=
EXTT12=
EXTT13=
EXTT14=
EXTT15=
EXTT16=
EXTT17=
EXTT18=
EXTT19=
EXTT20=
EXTT21=
EXTT22=
EXTT23=
EXTT24=
EXTT25=
EXTT26=
EXTT27=
EXTT28=
EXTT29=
PLAYORDER=
